<svg width="265" height="104" viewBox="0 0 265 104" fill="none" xmlns="http://www.w3.org/2000/svg">
<path d="M58.7273 76H41.5227V29.4545H58.7045C63.447 29.4545 67.5303 30.3864 70.9545 32.25C74.3939 34.0985 77.0455 36.7651 78.9091 40.25C80.7727 43.7197 81.7045 47.8712 81.7045 52.7045C81.7045 57.553 80.7727 61.7197 78.9091 65.2045C77.0606 68.6894 74.4167 71.3636 70.9773 73.2273C67.5379 75.0758 63.4545 76 58.7273 76ZM52.7727 66.4091H58.2955C60.9015 66.4091 63.1061 65.9697 64.9091 65.0909C66.7273 64.197 68.0985 62.75 69.0227 60.75C69.9621 58.7348 70.4318 56.053 70.4318 52.7045C70.4318 49.3561 69.9621 46.6894 69.0227 44.7045C68.0833 42.7045 66.697 41.2652 64.8636 40.3864C63.0455 39.4924 60.803 39.0455 58.1364 39.0455H52.7727V66.4091ZM91.5852 76.6591C89.9489 76.6591 88.5473 76.0833 87.3807 74.9318C86.2292 73.7803 85.661 72.3864 85.6761 70.75C85.661 69.1439 86.2292 67.7727 87.3807 66.6364C88.5473 65.4848 89.9489 64.9091 91.5852 64.9091C93.1307 64.9091 94.4943 65.4848 95.6761 66.6364C96.8731 67.7727 97.4792 69.1439 97.4943 70.75C97.4792 71.8409 97.1913 72.8333 96.6307 73.7273C96.0852 74.6212 95.3655 75.3333 94.4716 75.8636C93.5928 76.3939 92.6307 76.6591 91.5852 76.6591ZM147.085 46.3182H135.722C135.57 45.1515 135.259 44.0985 134.79 43.1591C134.32 42.2197 133.699 41.4167 132.926 40.75C132.153 40.0833 131.237 39.5758 130.176 39.2273C129.131 38.8636 127.972 38.6818 126.699 38.6818C124.441 38.6818 122.494 39.2348 120.858 40.3409C119.237 41.447 117.987 43.0455 117.108 45.1364C116.244 47.2273 115.812 49.7576 115.812 52.7273C115.812 55.8182 116.252 58.4091 117.131 60.5C118.025 62.5758 119.275 64.1439 120.881 65.2045C122.502 66.25 124.419 66.7727 126.631 66.7727C127.873 66.7727 129.002 66.6136 130.017 66.2955C131.047 65.9773 131.949 65.5152 132.722 64.9091C133.509 64.2879 134.153 63.5379 134.653 62.6591C135.169 61.7652 135.525 60.7576 135.722 59.6364L147.085 59.7045C146.888 61.7652 146.29 63.7955 145.29 65.7955C144.305 67.7955 142.949 69.6212 141.222 71.2727C139.494 72.9091 137.388 74.2121 134.903 75.1818C132.434 76.1515 129.6 76.6364 126.403 76.6364C122.191 76.6364 118.419 75.7121 115.085 73.8636C111.767 72 109.146 69.2879 107.222 65.7273C105.297 62.1667 104.335 57.8333 104.335 52.7273C104.335 47.6061 105.312 43.2652 107.267 39.7045C109.222 36.1439 111.866 33.4394 115.199 31.5909C118.532 29.7424 122.267 28.8182 126.403 28.8182C129.222 28.8182 131.828 29.2121 134.222 30C136.616 30.7727 138.722 31.9091 140.54 33.4091C142.358 34.8939 143.835 36.7197 144.972 38.8864C146.108 41.053 146.812 43.5303 147.085 46.3182ZM159.773 76.6591C158.136 76.6591 156.735 76.0833 155.568 74.9318C154.417 73.7803 153.848 72.3864 153.864 70.75C153.848 69.1439 154.417 67.7727 155.568 66.6364C156.735 65.4848 158.136 64.9091 159.773 64.9091C161.318 64.9091 162.682 65.4848 163.864 66.6364C165.061 67.7727 165.667 69.1439 165.682 70.75C165.667 71.8409 165.379 72.8333 164.818 73.7273C164.273 74.6212 163.553 75.3333 162.659 75.8636C161.78 76.3939 160.818 76.6591 159.773 76.6591Z" fill="white"/>
<circle cx="198.5" cy="52.5" r="28.5" fill="#D9D9D9"/>
</svg>
